<svg xmlns="http://www.w3.org/2000/svg" width="392" height="392" viewBox="0 0 392 392">
  <defs>
    <linearGradient id="bg" x1="35" y1="25" x2="360" y2="370" gradientUnits="userSpaceOnUse"><stop stop-color="#241B0A"/><stop offset=".5" stop-color="#0E0D0A"/><stop offset="1" stop-color="#050505"/></linearGradient>
    <linearGradient id="gold" x1="85" y1="70" x2="310" y2="330" gradientUnits="userSpaceOnUse"><stop stop-color="#FFF2A8"/><stop offset=".25" stop-color="#E7C660"/><stop offset=".55" stop-color="#B88624"/><stop offset=".8" stop-color="#F5DA7A"/><stop offset="1" stop-color="#8C6117"/></linearGradient>
  </defs>
  <rect x="8" y="8" width="376" height="376" rx="84" fill="url(#bg)" stroke="#72531A" stroke-width="4"/>
  <g opacity=".35" stroke="#D1A947" stroke-width="3"><path d="M52 150h288"/><path d="M52 175h288"/><path d="M52 200h288"/><path d="M52 225h288"/><path d="M52 250h288"/></g>
  <path d="M78 291V112l49 3 69 102 69-102 49-3v179h-55v-87l-57 89h-12l-57-89v87H78Z" fill="none" stroke="url(#gold)" stroke-width="22" stroke-linejoin="round"/>
  <path d="M283 71l8 20 20 8-20 8-8 20-8-20-20-8 20-8 8-20Z" fill="#FFF2A8"/>
</svg>
